<svg width="19" height="19" viewBox="0 0 19 19" fill="none" xmlns="http://www.w3.org/2000/svg">
<path d="M9.5 0L18.2808 5.22675C18.5037 5.37175 18.6794 5.5625 18.8078 5.799C18.9359 6.0355 19 6.28708 19 6.55375V17.096C19 17.6012 18.825 18.0288 18.475 18.3788C18.125 18.7288 17.6974 18.9038 17.1923 18.9038H1.80775C1.30258 18.9038 0.875 18.7288 0.525 18.3788C0.175 18.0288 0 17.6012 0 17.096V6.55375C0 6.28708 0.0640834 6.0355 0.19225 5.799C0.320583 5.5625 0.49625 5.37175 0.71925 5.22675L9.5 0ZM9.5 11.0538L17.3 6.40375L9.5 1.75375L1.7 6.40375L9.5 11.0538ZM9.5 12.8075L1.5 8.02675V17.096C1.5 17.1858 1.52883 17.2596 1.5865 17.3173C1.64417 17.3749 1.71792 17.4038 1.80775 17.4038H17.1923C17.2821 17.4038 17.3558 17.3749 17.4135 17.3173C17.4712 17.2596 17.5 17.1858 17.5 17.096V8.02675L9.5 12.8075Z" fill="white"/>
</svg>
