<svg width="24" height="24" viewBox="0 0 24 24" fill="none" xmlns="http://www.w3.org/2000/svg">
<path d="M1.24783 20H22.7522C23.4435 19.9625 24 19.4083 24 18.7375V5.2625C24 4.57083 23.413 4.00417 22.6913 4H1.3087C0.586956 4.00417 0 4.57083 0 5.2625V18.7333C0 19.4083 0.556522 19.9625 1.24783 20Z" fill="#FEFEFE"/>
<path d="M10.3217 13.5958V20H13.6609V13.5958H24V10.3958H13.6609V4H10.3217V10.3958H0V13.5958H10.3217Z" fill="#C8102E"/>
<path d="M14.7739 9.17917V4H22.7C23.2478 4.00833 23.7174 4.3375 23.9087 4.8L14.7739 9.17917Z" fill="#012169"/>
<path d="M14.7739 14.8208V20L22.7522 20C23.2783 19.9708 23.7217 19.6458 23.9087 19.2L14.7739 14.8208Z" fill="#012169"/>
<path d="M9.2087 14.8208V20L1.24783 20C0.721739 19.9708 0.273913 19.6458 0.0913043 19.1917L9.2087 14.8208Z" fill="#012169"/>
<path d="M9.2087 9.17917V4H1.3C0.752174 4.00833 0.278261 4.34167 0.0913043 4.80833L9.2087 9.17917Z" fill="#012169"/>
<path d="M0 9.33333H3.32609L0 7.7375V9.33333Z" fill="#012169"/>
<path d="M24 9.33333H20.6565L24 7.72917V9.33333Z" fill="#012169"/>
<path d="M24 14.6667H20.6565L24 16.2708V14.6667Z" fill="#012169"/>
<path d="M0 14.6667H3.32609L0 16.2625V14.6667Z" fill="#012169"/>
<path d="M24 5.35417L15.7174 9.33333H17.5696L24 6.25V5.35417Z" fill="#C8102E"/>
<path d="M6.41304 14.6667L0 17.7417V18.6375L8.28261 14.6667H6.41304Z" fill="#C8102E"/>
<path d="M4.57391 9.3375H6.42609L0 6.25417V7.14583L4.57391 9.3375Z" fill="#C8102E"/>
<path d="M19.4043 14.6625H17.5522L24 17.7583V16.8667L19.4043 14.6625Z" fill="#C8102E"/>
</svg>
