<svg width="24" height="24" viewBox="0 0 24 24" fill="none" xmlns="http://www.w3.org/2000/svg">
<path d="M19.1497 19.1505H16.1405V14.4379C16.1405 13.314 16.1205 11.8679 14.5754 11.8679C13.0083 11.8679 12.7681 13.0919 12.7681 14.3568V19.1505H9.75992V9.45912H12.649V10.7831H12.689C13.2785 9.77636 14.3733 9.1749 15.5391 9.21793C18.5893 9.21793 19.1507 11.2245 19.1507 13.8334L19.1497 19.1505ZM6.36446 8.13411C5.39976 8.13411 4.6182 7.35252 4.6182 6.38778C4.6182 5.42305 5.39976 4.64145 6.36446 4.64145C7.32916 4.64145 8.11072 5.42305 8.11072 6.38778C8.11072 7.35252 7.32916 8.13411 6.36446 8.13411ZM7.86855 19.1505H4.85637V9.45912H7.86855V19.1505ZM20.6498 1.84733H3.34428C2.52668 1.83832 1.8562 2.49382 1.84619 3.31144V20.6887C1.8562 21.5073 2.52668 22.1628 3.34428 22.1538H20.6498C21.4694 22.1638 22.1429 21.5083 22.1539 20.6887V3.31044C22.1419 2.49082 21.4684 1.83532 20.6498 1.84633" fill="#1059C4"/>
</svg>
