<svg width="48" height="48" viewBox="0 0 48 48" fill="none" xmlns="http://www.w3.org/2000/svg">
<path d="M15 22H9.2C8.07989 22 7.51984 22 7.09202 22.218C6.71569 22.4097 6.40973 22.7157 6.21799 23.092C6 23.5198 6 24.0799 6 25.2V42M33 22H38.8C39.9201 22 40.4802 22 40.908 22.218C41.2843 22.4097 41.5903 22.7157 41.782 23.092C42 23.5198 42 24.0799 42 25.2V42M33 42V12.4C33 10.1598 33 9.03969 32.564 8.18404C32.1805 7.43139 31.5686 6.81947 30.816 6.43597C29.9603 6 28.8402 6 26.6 6H21.4C19.1598 6 18.0397 6 17.184 6.43597C16.4314 6.81947 15.8195 7.43139 15.436 8.18404C15 9.03969 15 10.1598 15 12.4V42M44 42H4M22 14H26M22 22H26M22 30H26" stroke="white" stroke-width="1.5" stroke-linecap="round" stroke-linejoin="round"/>
</svg>
