<svg width="48" height="48" viewBox="0 0 48 48" fill="none" xmlns="http://www.w3.org/2000/svg">
<path d="M32.4 42C35.7603 42 37.4405 42 38.7239 41.346C39.8529 40.7708 40.7708 39.8529 41.346 38.7239C42 37.4405 42 35.7603 42 32.4V15.6C42 12.2397 42 10.5595 41.346 9.27606C40.7708 8.14709 39.8529 7.2292 38.7239 6.65396C37.4405 6 35.7603 6 32.4 6L15.6 6C12.2397 6 10.5595 6 9.27606 6.65396C8.14709 7.2292 7.2292 8.14708 6.65396 9.27606C6 10.5595 6 12.2397 6 15.6L6 32.4C6 35.7603 6 37.4405 6.65396 38.7239C7.2292 39.8529 8.14708 40.7708 9.27606 41.346C10.5595 42 12.2397 42 15.6 42H32.4Z" stroke="white" stroke-width="1.5" stroke-linecap="round" stroke-linejoin="round"/>
<path d="M27.4631 26.3894C27.322 25.9661 27.2515 25.7545 27.2552 25.5813C27.259 25.3993 27.2834 25.3038 27.3672 25.1421C27.4469 24.9884 27.6601 24.7901 28.0864 24.3934C29.2636 23.2979 30 21.7349 30 20C30 16.6863 27.3137 14 24 14C20.6863 14 18 16.6863 18 20C18 21.7349 18.7364 23.2979 19.9136 24.3934C20.3399 24.7901 20.5531 24.9884 20.6328 25.1421C20.7166 25.3038 20.741 25.3993 20.7448 25.5813C20.7485 25.7545 20.678 25.9661 20.5369 26.3894L18.702 31.894C18.465 32.6051 18.3465 32.9606 18.4175 33.2435C18.4797 33.4912 18.6344 33.7058 18.8497 33.8431C19.0957 34 19.4704 34 20.2199 34H27.7801C28.5296 34 28.9043 34 29.1503 33.8431C29.3656 33.7058 29.5203 33.4912 29.5825 33.2435C29.6535 32.9606 29.535 32.6051 29.298 31.894L27.4631 26.3894Z" stroke="white" stroke-width="1.5" stroke-linecap="round" stroke-linejoin="round"/>
</svg>
