<svg width="29" height="32" viewBox="0 0 29 32" fill="none" xmlns="http://www.w3.org/2000/svg">
<path d="M27.4167 30.75C27.4167 28.4241 27.4167 27.2611 27.1296 26.3148C26.4833 24.1841 24.8159 22.5167 22.6852 21.8704C21.7389 21.5833 20.5759 21.5833 18.25 21.5833H9.91667C7.59073 21.5833 6.42776 21.5833 5.48143 21.8704C3.35076 22.5167 1.6834 24.1841 1.03707 26.3148C0.75 27.2611 0.75 28.4241 0.75 30.75M21.5833 8.25C21.5833 12.3921 18.2255 15.75 14.0833 15.75C9.9412 15.75 6.58333 12.3921 6.58333 8.25C6.58333 4.10786 9.9412 0.75 14.0833 0.75C18.2255 0.75 21.5833 4.10786 21.5833 8.25Z" stroke="white" stroke-width="1.5" stroke-linecap="round" stroke-linejoin="round"/>
</svg>
