<svg width="29" height="35" viewBox="0 0 29 35" fill="none" xmlns="http://www.w3.org/2000/svg">
<path d="M9.08333 16.47L12.4167 19.8033L19.9167 12.3033M27.4167 17.3033C27.4167 25.4841 18.4934 31.434 15.2467 33.3281C14.8777 33.5434 14.6932 33.651 14.4328 33.7069C14.2307 33.7502 13.9359 33.7502 13.7339 33.7069C13.4735 33.651 13.289 33.5434 12.92 33.3281C9.67327 31.434 0.75 25.4841 0.75 17.3033V9.33267C0.75 8.00015 0.75 7.33389 0.967934 6.76117C1.16046 6.25523 1.4733 5.8038 1.87943 5.44588C2.33916 5.04073 2.963 4.80679 4.21067 4.33891L13.147 0.987789C13.4935 0.857855 13.6667 0.792887 13.845 0.767133C14.0031 0.744289 14.1636 0.744289 14.3217 0.767133C14.4999 0.792887 14.6732 0.857855 15.0197 0.987789L23.956 4.33891C25.2037 4.80679 25.8275 5.04073 26.2872 5.44588C26.6934 5.8038 27.0062 6.25523 27.1987 6.76117C27.4167 7.33389 27.4167 8.00015 27.4167 9.33267V17.3033Z" stroke="white" stroke-width="1.5" stroke-linecap="round" stroke-linejoin="round"/>
</svg>
